<?xml version="1.0" standalone="no"?>
<!DOCTYPE svg PUBLIC "-//W3C//DTD SVG 1.1//EN" "http://www.w3.org/Graphics/SVG/1.1/DTD/svg11.dtd" >
<svg xmlns="http://www.w3.org/2000/svg">
<metadata></metadata>
<defs>
<font id="simplon_bp_mono_mediummedium" horiz-adv-x="1245" >
<font-face units-per-em="2048" ascent="1536" descent="-512" />
<missing-glyph horiz-adv-x="500" />
<glyph unicode="&#xfb01;" d="M72 850v207h149v125q0 126 61 189t191 63h223v-207h-161q-61 0 -80 -20.5t-19 -80.5v-69h666v-1057h-215v850h-451v-850h-215v850h-149zM856 1167v267h266v-267h-266z" />
<glyph unicode="&#xfb02;" d="M72 850v207h149v125q0 126 61 189t191 63h629v-1434h-215v1227h-352q-61 0 -80 -20.5t-19 -80.5v-69h260v-207h-260v-850h-215v850h-149z" />
<glyph horiz-adv-x="0" />
<glyph horiz-adv-x="682" />
<glyph unicode=" " />
<glyph unicode="!" d="M485 0v274h275v-274h-275zM516 471v963h215v-963h-215z" />
<glyph unicode="&#x22;" d="M319 975v459h109v-459h-109zM817 975v459h109v-459h-109z" />
<glyph unicode="#" d="M96 442v93h168l90 364h-166v92h189l110 443h97l-111 -443h432l111 443h96l-111 -443h148v-92h-170l-90 -364h168v-93h-191l-108 -442h-96l108 442h-432l-109 -442h-96l109 442h-146zM360 535h433l90 364h-432z" />
<glyph unicode="$" d="M158 444h215q8 -121 73 -189.5t175 -68.5q108 0 166.5 51t58.5 136q0 70 -39.5 124t-136.5 91l-195 76q-295 115 -295 397q0 176 108.5 278t286.5 113v186h89v-186q164 -13 263 -121.5t111 -279.5h-215q-12 91 -63.5 143.5t-138.5 52.5q-109 0 -167.5 -51t-58.5 -135 q0 -77 43 -121t121 -74l211 -82q157 -61 224 -161.5t67 -249.5q0 -171 -101 -276t-296 -115v-187h-89v187q-190 13 -300.5 140.5t-116.5 321.5z" />
<glyph unicode="%" d="M111 1161q0 117 81.5 200t198.5 83t200 -83t83 -200t-83 -198.5t-200 -81.5t-198.5 81.5t-81.5 198.5zM145 307l889 891l66 -65l-889 -891zM270 1161q0 -52 34 -88.5t87 -36.5t88 36.5t35 88.5t-35 89.5t-88 37.5t-87 -37.5t-34 -89.5zM571 270q0 117 82 200t199 83 t200 -83t83 -200t-83 -198.5t-200 -81.5t-199 81.5t-82 198.5zM731 270q0 -52 34 -88.5t87 -36.5t88 36.5t35 88.5t-35 89.5t-88 37.5t-87 -37.5t-34 -89.5z" />
<glyph unicode="&#x26;" d="M86 418q0 151 89.5 268t230.5 156q25 7 45 10l-215 379v203h729v-203h-486l385 -678l111 201l180 -103l-172 -307l141 -248l-182 -106l-86 149q-45 -68 -134.5 -113.5t-197.5 -45.5q-183 0 -310.5 127.5t-127.5 310.5zM301 418q0 -97 64 -164.5t159 -67.5q78 0 127.5 39 t89.5 117l-174 305q-28 4 -43 4q-95 0 -159 -68t-64 -165z" />
<glyph unicode="'" d="M567 975v459h109v-459h-109z" />
<glyph unicode="(" d="M512 23v1200q0 108 47 159.5t172 51.5h242v-86h-242q-78 0 -104.5 -29t-26.5 -96v-1200q0 -67 26.5 -96t104.5 -29h242v-86h-242q-125 0 -172 51.5t-47 159.5z" />
<glyph unicode=")" d="M272 -102h242q78 0 104.5 29t26.5 96v1200q0 67 -26.5 96t-104.5 29h-242v86h242q125 0 172 -51.5t47 -159.5v-1200q0 -108 -47 -159.5t-172 -51.5h-242v86z" />
<glyph unicode="*" d="M233 1116l27 88l315 -102v332h93v-332l315 102l27 -88l-316 -102l197 -269l-76 -51l-192 269l-195 -269l-76 51l197 269z" />
<glyph unicode="+" d="M217 528v93h361v358h92v-358h358v-93h-358v-360h-92v360h-361z" />
<glyph unicode="," d="M256 -188l418 415l151 -151l-417 -416z" />
<glyph unicode="-" d="M326 528v93h594v-93h-594z" />
<glyph unicode="." d="M485 0v274h275v-274h-275z" />
<glyph unicode="/" d="M102 43l967 1401l76 -53l-967 -1401z" />
<glyph unicode="0" d="M182 420v594q0 183 129 311.5t312 128.5t311.5 -128.5t128.5 -311.5v-594q0 -183 -128.5 -311.5t-311.5 -128.5t-312 128.5t-129 311.5zM397 420q0 -97 64 -165.5t162 -68.5t161.5 68.5t63.5 165.5v459l-451 -453v-6zM397 557l451 453v4q0 97 -63.5 165t-161.5 68 t-162 -68t-64 -165v-457z" />
<glyph unicode="1" d="M176 0v207h373v936l-205 -205l-145 145l350 351h215v-1227h373v-207h-961z" />
<glyph unicode="2" d="M186 0v207l529 555q77 80 107 132.5t30 119.5q0 97 -63.5 165t-161.5 68t-162 -68t-64 -165q0 -104 74 -172l-147 -152q-67 61 -104.5 145t-37.5 179q0 183 129 311.5t312 128.5t311.5 -128.5t128.5 -311.5q0 -100 -44 -190.5t-146 -198.5l-398 -418h588v-207h-881z" />
<glyph unicode="3" d="M164 420h215q0 -97 63.5 -165.5t161.5 -68.5t161.5 68.5t63.5 165.5q0 94 -60.5 162.5t-154.5 72.5h-10v199h8q78 3 129.5 60.5t51.5 136.5q0 81 -53.5 138.5t-135.5 57.5q-81 0 -133.5 -57.5t-52.5 -138.5h-215q0 167 117 285t284 118t285.5 -118t118.5 -285 q0 -175 -129 -291q77 -62 121 -150t44 -190q0 -183 -128.5 -311.5t-311.5 -128.5t-311.5 128.5t-128.5 311.5z" />
<glyph unicode="4" d="M96 354v207l645 883l168 -123l-555 -760h379v297h215v-297h150v-207h-150v-354h-215v354h-637z" />
<glyph unicode="5" d="M176 420h215q0 -97 63.5 -165.5t161.5 -68.5t162 68.5t64 165.5v63q0 97 -64 165.5t-162 68.5q-61 0 -111 -31.5t-81 -83.5l-229 168l145 664h627v-207h-455l-80 -361q34 25 87.5 41.5t107.5 16.5q176 0 303 -129.5t127 -311.5v-63q0 -183 -129 -311.5t-312 -128.5 t-311.5 128.5t-128.5 311.5z" />
<glyph unicode="6" d="M156 420v63q0 147 88 265l510 696l168 -123l-293 -399q73 -6 137 -33q121 -50 195.5 -160.5t74.5 -245.5v-63q0 -183 -128.5 -311.5t-311.5 -128.5t-311.5 128.5t-128.5 311.5zM371 420q0 -97 63.5 -165.5t161.5 -68.5t161.5 68.5t63.5 165.5v63q0 97 -63.5 165.5 t-161.5 68.5t-161.5 -68.5t-63.5 -165.5v-63z" />
<glyph unicode="7" d="M188 1008v426h869v-207l-447 -1237l-196 69l422 1168h-433v-219h-215z" />
<glyph unicode="8" d="M182 420q0 101 44 190t120 150q-125 115 -125 291q0 167 117.5 285t284.5 118t285 -118t118 -285q0 -174 -127 -291q76 -61 120 -150t44 -190q0 -183 -128.5 -311.5t-311.5 -128.5t-312 128.5t-129 311.5zM397 420q0 -97 64.5 -164.5t161.5 -67.5t161 67.5t64 164.5 t-64 164t-161 67t-161.5 -67.5t-64.5 -163.5zM436 1051q0 -81 52.5 -138t134.5 -57t135 57t53 138t-53 138.5t-135 57.5t-134.5 -57.5t-52.5 -138.5z" />
<glyph unicode="9" d="M209 950v64q0 183 128.5 311.5t311.5 128.5t312 -128.5t129 -311.5v-64q0 -144 -89 -264l-509 -696l-168 123l292 399q-73 6 -137 33q-121 50 -195.5 160t-74.5 245zM424 950q0 -97 63.5 -165t161.5 -68t161.5 68t63.5 165v64q0 97 -63.5 165t-161.5 68t-161.5 -68 t-63.5 -165v-64z" />
<glyph unicode=":" d="M485 0v274h275v-274h-275zM485 657v275h275v-275h-275z" />
<glyph unicode=";" d="M190 -188l418 415l152 -151l-418 -416zM485 657v275h275v-275h-275z" />
<glyph unicode="&#x3c;" d="M301 532l553 553l66 -63l-490 -490l490 -489l-66 -63z" />
<glyph unicode="=" d="M217 317v93h811v-93h-811zM217 717v92h811v-92h-811z" />
<glyph unicode="&#x3e;" d="M326 43l489 489l-489 490l65 63l553 -553l-553 -552z" />
<glyph unicode="?" d="M164 1022q0 187 127.5 309.5t312.5 122.5q184 0 312 -125t128 -307q0 -154 -93.5 -270t-239.5 -150v-131h-215v326h108q94 0 159.5 65.5t65.5 159.5t-65.5 159.5t-159.5 65.5t-159.5 -65.5t-65.5 -159.5h-215zM467 0v274h274v-274h-274z" />
<glyph unicode="@" d="M82 143v781q0 241 143.5 385.5t397.5 144.5t397 -144t143 -386v-799q0 -66 -44 -105.5t-118 -39.5q-57 0 -96 29t-53 77q-77 -106 -236 -106q-138 0 -224.5 80.5t-86.5 215.5v84q0 135 86.5 216t224.5 81h99v127q0 44 -28 69.5t-71 25.5q-42 0 -69 -25t-27 -70v-55h-215 v62q0 135 86.5 214.5t226.5 79.5q139 0 225.5 -79.5t86.5 -214.5v-650q0 -35 18.5 -55t52.5 -20t54 20t20 55v783q0 202 -119.5 323t-332.5 121t-333 -121t-120 -323v-781q0 -202 120 -323t333 -121v-86q-254 0 -397.5 144.5t-143.5 385.5zM520 281q0 -45 27 -70t69 -25 q43 0 71 25t28 68v170h-99q-42 0 -69 -25t-27 -70v-73z" />
<glyph unicode="A" d="M8 0l502 1434h225l502 -1434h-225l-121 346h-537l-121 -346h-225zM424 549h397l-198 569z" />
<glyph unicode="B" d="M133 0v1434h553q210 0 325 -110.5t115 -299.5q0 -91 -36 -166.5t-105 -124.5q89 -54 132.5 -137t43.5 -182q0 -193 -114 -303.5t-326 -110.5h-588zM352 217h369q103 0 160 51t57 148t-57 147.5t-160 50.5h-369v-397zM352 831h334q101 0 159 50t58 143t-58 143t-159 50 h-334v-386z" />
<glyph unicode="C" d="M117 485v463q0 231 141.5 368.5t372.5 137.5q221 0 360.5 -125.5t151.5 -339.5h-219q-13 121 -98 184.5t-195 63.5q-55 0 -106.5 -17.5t-94.5 -51t-68.5 -91t-25.5 -129.5v-463q0 -72 25.5 -129t68.5 -91t94 -51t107 -17q110 0 195 63t98 184h219q-13 -213 -152.5 -338.5 t-359.5 -125.5q-232 0 -373 137.5t-141 367.5z" />
<glyph unicode="D" d="M117 0v1434h514q231 0 372.5 -137.5t141.5 -368.5v-422q0 -231 -141.5 -368.5t-372.5 -137.5h-514zM336 217h295q75 0 140 30t110 98.5t45 164.5v414q0 96 -45 164.5t-110 98.5t-140 30h-295v-1000z" />
<glyph unicode="E" d="M221 0v1434h846v-217h-627v-386h484v-217h-484v-397h627v-217h-846z" />
<glyph unicode="F" d="M258 0v1434h846v-217h-627v-386h484v-217h-484v-614h-219z" />
<glyph unicode="G" d="M113 485v463q0 231 141.5 368.5t372.5 137.5q219 0 358 -124t154 -335h-219q-16 118 -100.5 180t-192.5 62q-55 0 -106.5 -17.5t-94.5 -51t-68.5 -91t-25.5 -129.5v-463q0 -72 25.5 -129t68.5 -91t94 -51t107 -17t107 17t94 51t68.5 91t25.5 129v93h-295v210h514v-303 q0 -230 -141 -367.5t-373 -137.5t-373 137.5t-141 367.5z" />
<glyph unicode="H" d="M109 0v1434h219v-603h590v603h219v-1434h-219v614h-590v-614h-219z" />
<glyph unicode="I" d="M201 0v217h313v1000h-313v217h846v-217h-314v-1000h314v-217h-846z" />
<glyph unicode="J" d="M88 410h223q23 -104 105 -158.5t182 -54.5q56 0 107 17t94 51t68.5 91t25.5 129v732h-627v217h846v-949q0 -230 -141 -367.5t-373 -137.5q-211 0 -349 115.5t-161 314.5z" />
<glyph unicode="K" d="M115 0v1434h219v-701l596 701h270l-502 -590l557 -844h-258l-444 674l-219 -258v-416h-219z" />
<glyph unicode="L" d="M236 0v1434h219v-1217h626v-217h-845z" />
<glyph unicode="M" d="M109 0v1434h231l283 -789l282 789h232v-1434h-213v985l-215 -600h-172l-215 600v-985h-213z" />
<glyph unicode="N" d="M109 0v1434h219l590 -1028v1028h219v-1434h-219l-590 1028v-1028h-219z" />
<glyph unicode="O" d="M109 485v463q0 231 141.5 368.5t372.5 137.5t372.5 -137.5t141.5 -368.5v-463q0 -230 -141 -367.5t-373 -137.5t-373 137.5t-141 367.5zM328 485q0 -72 25.5 -129t68.5 -91t94 -51t107 -17t107 17t94 51t68.5 91t25.5 129v463q0 72 -25.5 129.5t-68.5 91t-94.5 51 t-106.5 17.5t-106.5 -17.5t-94.5 -51t-68.5 -91t-25.5 -129.5v-463z" />
<glyph unicode="P" d="M158 0v1434h544q121 0 215 -37t152 -102.5t87.5 -149t29.5 -180.5t-29.5 -180.5t-87.5 -149t-152 -102.5t-215 -37h-325v-496h-219zM377 713h325q131 0 196 71.5t65 182.5t-65 182.5t-196 71.5h-325v-508z" />
<glyph unicode="Q" d="M109 485v463q0 231 141.5 368.5t372.5 137.5t372.5 -137.5t141.5 -368.5v-463q0 -175 -86 -303l127 -129l-150 -145l-133 135q-117 -63 -272 -63q-232 0 -373 137.5t-141 367.5zM328 485q0 -72 25.5 -129t68.5 -91t94 -51t107 -17q50 0 106 16l-401 418v-146zM328 932 l561 -582q29 60 29 135v463q0 72 -25.5 129.5t-68.5 91t-94.5 51t-106.5 17.5t-106.5 -17.5t-94.5 -51t-68.5 -91t-25.5 -129.5v-16z" />
<glyph unicode="R" d="M150 0v1434h563q210 0 325 -110.5t115 -299.5q0 -160 -83.5 -264t-238.5 -133l369 -627h-246l-362 616h-223v-616h-219zM369 827h344q101 0 159 51t58 144t-58 144t-159 51h-344v-390z" />
<glyph unicode="S" d="M111 444h223q23 -120 103 -183.5t206 -63.5q110 0 176 49.5t66 132.5q0 80 -48.5 130.5t-154.5 76.5l-254 61q-140 34 -217.5 140.5t-77.5 261.5q0 101 36.5 179.5t100 127t146.5 73.5t180 25q211 0 336.5 -108.5t152.5 -294.5h-233q-22 89 -86.5 137.5t-167.5 48.5 q-122 0 -182 -51t-60 -137q0 -151 162 -191l246 -59q344 -83 344 -424q0 -177 -124.5 -286t-344.5 -109q-160 0 -277 61.5t-178 164t-73 238.5z" />
<glyph unicode="T" d="M111 1217v217h1026v-217h-404v-1217h-219v1217h-403z" />
<glyph unicode="U" d="M109 485v949h219v-949q0 -72 25.5 -129t68.5 -91t94 -51t107 -17t107 17t94 51t68.5 91t25.5 129v949h219v-949q0 -230 -141 -367.5t-373 -137.5t-373 137.5t-141 367.5z" />
<glyph unicode="V" d="M8 1434h225l390 -1119l389 1119h225l-502 -1434h-225z" />
<glyph unicode="W" d="M41 1434h215l133 -1076l146 871h176l145 -871l133 1076h215l-205 -1434h-217l-159 881l-160 -881h-217z" />
<glyph unicode="X" d="M20 0l455 741l-424 693h246l326 -535l325 535h246l-424 -693l455 -741h-246l-356 586l-357 -586h-246z" />
<glyph unicode="Y" d="M8 1434h242l373 -660l372 660h242l-506 -887v-547h-219v547z" />
<glyph unicode="Z" d="M94 0v217l762 1000h-752v217h1018v-217l-762 -1000h773v-217h-1039z" />
<glyph unicode="[" d="M512 -188v1622h461v-86h-373v-1450h373v-86h-461z" />
<glyph unicode="\" d="M100 1391l76 53l967 -1401l-76 -53z" />
<glyph unicode="]" d="M272 -102h373v1450h-373v86h461v-1622h-461v86z" />
<glyph unicode="^" d="M70 891l553 553l553 -553l-64 -66l-489 490l-490 -490z" />
<glyph unicode="_" d="M217 -141h811v-92h-811v92z" />
<glyph unicode="`" d="M336 1346l26 98l547 -150l-26 -98z" />
<glyph unicode="a" d="M164 293q0 48 11.5 93.5t36.5 89.5t71.5 79t109.5 55q86 27 184.5 39t260.5 23q-3 27 -9 51q-20 77 -76 116.5t-139 39.5q-81 0 -137.5 -38t-77.5 -112h-219q13 100 58.5 173t110 111t130 55t135.5 17q60 0 117 -11.5t117 -42.5t105 -79t73.5 -126.5t28.5 -178.5v-647 h-215v100q-100 -120 -316 -120q-100 0 -179.5 32t-130 104.5t-50.5 176.5zM379 311q0 -125 180 -125q41 0 77 5.5t74.5 21t66 41t45.5 68.5t18 100v59q-169 -11 -263 -25t-147 -46q-51 -30 -51 -99z" />
<glyph unicode="b" d="M190 0v1434h216v-469q24 48 94.5 84t150.5 36q57 0 113.5 -14t112.5 -47t98.5 -81.5t69 -125t26.5 -170.5v-229q0 -94 -26.5 -170.5t-69 -125t-98.5 -81.5t-112.5 -47t-113.5 -14q-80 0 -150.5 36t-94.5 84v-100h-216zM406 422q0 -116 60.5 -175t164.5 -59t164.5 59 t60.5 175v221q0 116 -60.5 175t-164.5 59t-164.5 -59t-60.5 -175v-221z" />
<glyph unicode="c" d="M190 418v229q0 100 28.5 178.5t73.5 126.5t105 79t117 42.5t117 11.5q56 0 110 -10t111 -37t101.5 -68.5t76 -109.5t39.5 -155h-219q-15 86 -72.5 130t-146.5 44q-103 0 -164 -60t-61 -176v-221q0 -116 61 -176t164 -60q89 0 147.5 44t73.5 130h217q-8 -87 -39.5 -155 t-76 -109.5t-101.5 -68.5t-111 -37t-110 -10q-60 0 -117 11.5t-117 42.5t-105 79t-73.5 126.5t-28.5 178.5z" />
<glyph unicode="d" d="M174 418v229q0 94 26.5 170.5t69 125t98.5 81.5t112.5 47t113.5 14q80 0 151 -36t95 -84v469h215v-1434h-215v100q-24 -48 -95 -84t-151 -36q-57 0 -113.5 14t-112.5 47t-98.5 81.5t-69 125t-26.5 170.5zM389 422q0 -115 58.5 -174.5t152.5 -59.5q106 0 173 59.5 t67 174.5v221q0 116 -61 175t-165 59t-164.5 -59t-60.5 -175v-221z" />
<glyph unicode="e" d="M184 418v229q0 100 28.5 178.5t73.5 126.5t105 79t117 42.5t117 11.5t117 -11.5t117 -42.5t104.5 -79t73 -126.5t28.5 -178.5v-190h-666v-35q0 -116 61 -176t165 -60q81 0 137.5 38t77.5 112h219q-13 -100 -58.5 -173t-110 -111t-130 -55t-135.5 -17q-60 0 -117 11.5 t-117 42.5t-105 79t-73.5 126.5t-28.5 178.5zM399 647h451v2q-1 112 -62 171t-163 59q-104 0 -165 -58.5t-61 -171.5v-2z" />
<glyph unicode="f" d="M127 854v203h301v125q0 126 61 189t191 63h407v-207h-346q-61 0 -79.5 -20.5t-18.5 -80.5v-69h444v-203h-444v-854h-215v854h-301z" />
<glyph unicode="g" d="M174 479v168q0 94 26.5 170.5t69 125t98.5 81.5t112.5 47t113.5 14q80 0 151 -36t95 -84v92h215v-1016q0 -100 -28.5 -178.5t-73.5 -126.5t-105 -79t-117 -42.5t-117 -11.5q-56 0 -109.5 10.5t-110.5 37t-100.5 68t-75.5 108.5t-40 153h217q17 -84 74.5 -127t144.5 -43 q104 0 165 59.5t61 175.5v117q-24 -48 -95 -84.5t-151 -36.5q-57 0 -113.5 14t-112.5 47t-98.5 81.5t-69 125t-26.5 170.5zM389 483q0 -116 60.5 -174.5t164.5 -58.5t165 58.5t61 174.5v160q0 116 -61 175t-165 59t-164.5 -59t-60.5 -175v-160z" />
<glyph unicode="h" d="M186 0v1434h215v-469q24 48 95 84t151 36q57 0 113.5 -14t112.5 -47t98.5 -81.5t69 -125t26.5 -170.5v-647h-215v643q0 116 -60.5 175t-164.5 59t-165 -59t-61 -175v-643h-215z" />
<glyph unicode="i" d="M150 0v207h372v643h-270v207h485v-850h373v-207h-960zM492 1167v267h266v-267h-266z" />
<glyph unicode="j" d="M109 -170h448q61 0 79.5 20t18.5 80v920h-444v207h659v-1182q0 -126 -61 -189t-191 -63h-509v207zM625 1167v267h266v-267h-266z" />
<glyph unicode="k" d="M217 0v1434h215v-807l395 430h260l-380 -414l438 -643h-250l-332 487l-131 -143v-344h-215z" />
<glyph unicode="l" d="M143 0v207h373v1020h-270v207h485v-1227h373v-207h-961z" />
<glyph unicode="m" d="M115 0v1057h215v-47q42 65 141 65q98 0 156 -74q75 84 200 84q147 0 228.5 -83.5t81.5 -219.5v-782h-215v782q0 44 -26.5 69.5t-68.5 25.5t-68 -25.5t-26 -69.5v-782h-215v782q0 44 -26 69.5t-68 25.5t-68 -25.5t-26 -69.5v-782h-215z" />
<glyph unicode="n" d="M186 0v1057h215v-92q24 48 95 84t151 36q57 0 113.5 -14t112.5 -47t98.5 -81.5t69 -125t26.5 -170.5v-647h-215v643q0 116 -60.5 175t-164.5 59t-165 -59t-61 -175v-643h-215z" />
<glyph unicode="o" d="M182 418v229q0 100 28.5 178.5t73.5 126.5t105 79t117 42.5t117 11.5t117 -11.5t117 -42.5t104.5 -79t73 -126.5t28.5 -178.5v-229q0 -100 -28.5 -178.5t-73 -126.5t-104.5 -79t-117 -42.5t-117 -11.5t-117 11.5t-117 42.5t-105 79t-73.5 126.5t-28.5 178.5zM397 422 q0 -116 61 -176t165 -60q103 0 164 60t61 176v221q0 116 -61 176t-164 60q-104 0 -165 -60t-61 -176v-221z" />
<glyph unicode="p" d="M190 -377v1434h216v-92q24 48 94.5 84t150.5 36q57 0 113.5 -14t112.5 -47t98.5 -81.5t69 -125t26.5 -170.5v-229q0 -94 -26.5 -170.5t-69 -125t-98.5 -81.5t-112.5 -47t-113.5 -14q-80 0 -150.5 36t-94.5 84v-477h-216zM406 422q0 -116 60.5 -175t164.5 -59t164.5 59 t60.5 175v221q0 116 -60.5 175t-164.5 59t-164.5 -59t-60.5 -175v-221z" />
<glyph unicode="q" d="M174 418v229q0 94 26.5 170.5t69 125t98.5 81.5t112.5 47t113.5 14q80 0 151 -36t95 -84v92h215v-1434h-215v477q-24 -48 -95 -84t-151 -36q-57 0 -113.5 14t-112.5 47t-98.5 81.5t-69 125t-26.5 170.5zM389 422q0 -115 58.5 -174.5t152.5 -59.5q106 0 173 59.5t67 174.5 v221q0 116 -61 175t-165 59t-164.5 -59t-60.5 -175v-221z" />
<glyph unicode="r" d="M94 0v207h334v643h-231v207h446v-103q24 48 95 84.5t151 36.5h268v-207h-289q-104 0 -164.5 -58.5t-60.5 -174.5v-428h412v-207h-961z" />
<glyph unicode="s" d="M203 338h221q11 -75 75.5 -113.5t155.5 -38.5q174 0 174 111q0 49 -34.5 72.5t-98.5 38.5l-200 51q-57 14 -101.5 36t-84.5 58t-61.5 92t-21.5 129q0 151 107 231t276 80q177 0 284.5 -83t121.5 -254h-225q-11 66 -64 98.5t-131 32.5q-60 0 -106 -26t-46 -83 q0 -42 32 -63.5t87 -34.5l195 -49q151 -38 220 -112.5t69 -219.5q-1 -152 -108.5 -231.5t-285.5 -79.5q-192 0 -316.5 91.5t-133.5 266.5z" />
<glyph unicode="t" d="M115 854v203h301v239h215v-239h444v-203h-444v-547q0 -60 18.5 -80t79.5 -20h346v-207h-407q-130 0 -191 63t-61 189v602h-301z" />
<glyph unicode="u" d="M184 418v639h215v-635q0 -116 59.5 -175t159.5 -59t160 59t60 175v635h215v-1057h-215v100q-24 -48 -95 -84t-151 -36q-56 0 -112 15.5t-110 49.5t-95 84t-66 124.5t-25 164.5z" />
<glyph unicode="v" d="M135 1057h223l265 -752l264 752h223l-381 -1057h-213z" />
<glyph unicode="w" d="M102 1057h213l97 -725l118 561h185l119 -561l96 725h213l-170 -1057h-199l-151 637l-152 -637h-199z" />
<glyph unicode="x" d="M137 0l359 543l-342 514h237l232 -352l231 352h238l-342 -514l358 -543h-238l-247 379l-248 -379h-238z" />
<glyph unicode="y" d="M135 1057h223l265 -752l264 752h223l-469 -1301q-47 -133 -233 -133h-144v207h76q40 0 61 3t37 19t22 29.5t23 55.5l29 77z" />
<glyph unicode="z" d="M223 0v203l506 651h-491v203h759v-203l-505 -651h520v-203h-789z" />
<glyph unicode="{" d="M360 580v86h21q78 0 104.5 29t26.5 96v432q0 108 47 159.5t172 51.5h242v-86h-242q-78 0 -104.5 -29t-26.5 -96v-432q0 -125 -70 -168q70 -45 70 -168v-432q0 -67 26.5 -96t104.5 -29h242v-86h-242q-125 0 -172 51.5t-47 159.5v432q0 67 -26.5 96t-104.5 29h-21z" />
<glyph unicode="|" d="M578 -205v1639h88v-1639h-88z" />
<glyph unicode="}" d="M272 -102h242q78 0 104.5 29t26.5 96v432q0 123 70 168q-70 43 -70 168v432q0 67 -26.5 96t-104.5 29h-242v86h242q125 0 172 -51.5t47 -159.5v-432q0 -67 26.5 -96t104.5 -29h21v-86h-21q-78 0 -104.5 -29t-26.5 -96v-432q0 -108 -47 -159.5t-172 -51.5h-242v86z" />
<glyph unicode="~" d="M197 524l325 176l209 -149l277 149l43 -77l-326 -177l-209 150l-276 -150z" />
<glyph unicode="&#xa0;" />
<glyph unicode="&#xa1;" d="M485 782v275h275v-275h-275zM516 -377v963h215v-963h-215z" />
<glyph unicode="&#xa2;" d="M190 418v229q0 93 24.5 168t64 122.5t93.5 80t107 47t111 18.5v187h88v-187q53 -4 102 -18t99.5 -42.5t89 -69.5t66 -105t34.5 -143h-219q-15 86 -72.5 130t-146.5 44q-103 0 -164 -60t-61 -176v-221q0 -116 61 -176t164 -60q89 0 147.5 44t73.5 130h217 q-9 -98 -47.5 -172t-96 -116t-119 -63.5t-128.5 -26.5v-187h-88v187q-58 4 -111 18.5t-107 47t-93.5 80t-64 122.5t-24.5 168z" />
<glyph unicode="&#xa3;" d="M125 0v207h131v467h-131v88h131v254q0 100 28.5 178.5t73 126.5t104.5 79t117 42.5t117 11.5t117 -11.5t117 -42.5t105 -79t73.5 -126.5t28.5 -178.5v-4h-215q0 116 -61 175.5t-165 59.5t-164.5 -59.5t-60.5 -175.5v-250h451v-88h-451v-467h666v-207h-1012z" />
<glyph unicode="&#xa4;" d="M29 164l172 174q-131 153 -131 358q0 206 131 359l-172 174l63 61l172 -174q152 133 359 133q206 0 358 -133l172 174l64 -61l-175 -174q134 -153 134 -359q0 -205 -134 -358l175 -174l-64 -62l-172 172q-153 -131 -358 -131q-206 0 -359 131l-172 -172zM276 696 q0 -142 102 -244t245 -102t244.5 102t101.5 244t-101.5 244t-244.5 102t-245 -102t-102 -244z" />
<glyph unicode="&#xa5;" d="M8 1434h238l377 -664l376 664h238l-459 -799h248v-88h-297v-180h297v-88h-297v-279h-215v279h-297v88h297v180h-297v88h246z" />
<glyph unicode="&#xa6;" d="M580 -205v694h88v-694h-88zM580 739v695h88v-695h-88z" />
<glyph unicode="&#xa7;" d="M195 575q0 104 54.5 176t151.5 105q-139 94 -139 272q0 143 102.5 234.5t256.5 91.5q148 0 249.5 -88.5t122.5 -243.5h-92q-18 111 -92.5 178.5t-187.5 67.5q-107 0 -186.5 -66t-80.5 -174q0 -87 48 -147.5t130 -87.5l238 -82q41 -14 72.5 -27.5t74 -41.5t70.5 -60.5 t48 -84.5t20 -114q0 -105 -57 -176.5t-156 -105.5q143 -102 143 -287q0 -65 -19 -119t-58.5 -98t-110 -69t-166.5 -25q-168 0 -266.5 97t-114.5 255h92q12 -119 92 -192.5t197 -73.5q132 0 197 63t65 162q0 91 -48.5 159t-129.5 95l-240 82q-32 12 -49.5 19.5t-51.5 24.5 t-54.5 33t-47 42t-41.5 54t-25.5 67.5t-10.5 84.5zM287 575q0 -94 56 -149t155 -88l211 -74q48 3 89.5 15t80.5 36t61.5 67t22.5 101q0 170 -211 240l-215 72q-48 -3 -89 -15.5t-78.5 -36.5t-59.5 -67t-23 -101z" />
<glyph unicode="&#xa8;" d="M303 1243v156h156v-156h-156zM786 1243v156h156v-156h-156z" />
<glyph unicode="&#xa9;" d="M82 510v414q0 241 143.5 385.5t397.5 144.5t397 -144t143 -386v-414q0 -242 -143 -386t-397 -144t-397.5 144.5t-143.5 385.5zM170 510q0 -202 120 -323t333 -121t332.5 121t119.5 323v414q0 202 -119.5 323t-332.5 121t-333 -121t-120 -323v-414zM315 614v205 q0 136 80 218.5t228 82.5q147 0 226.5 -78.5t82.5 -210.5h-176q-5 52 -39.5 83.5t-93.5 31.5q-62 0 -98 -34.5t-36 -92.5v-205q0 -58 36 -93.5t98 -35.5q59 0 93.5 31t39.5 84h176q-3 -131 -82.5 -209t-226.5 -78q-149 0 -228.5 82t-79.5 219z" />
<glyph unicode="&#xaa;" d="M264 424v92h697v-92h-697zM264 844q0 53 15 98t55.5 86t103.5 62q105 34 346 49q-4 30 -8 41q-34 110 -160 110q-127 0 -161 -110h-176q10 74 44 129.5t82.5 86.5t101 45.5t109.5 14.5q64 0 122 -18t109.5 -56.5t82.5 -108.5t31 -163v-492h-175v80q-77 -96 -239 -96 q-124 0 -203.5 62t-79.5 180zM438 860q0 -94 137 -94q39 0 74 8.5t67 27.5t51 55.5t19 86.5v43q-89 -6 -133 -10.5t-95.5 -14.5t-78.5 -26q-41 -25 -41 -76z" />
<glyph unicode="&#xab;" d="M111 524l430 430l65 -63l-366 -367l366 -366l-65 -64zM571 524l430 430l66 -63l-367 -367l367 -366l-66 -64z" />
<glyph unicode="&#xac;" d="M217 528v93h811v-453h-92v360h-719z" />
<glyph unicode="&#xad;" d="M326 528v93h594v-93h-594z" />
<glyph unicode="&#xae;" d="M82 510v414q0 241 143.5 385.5t397.5 144.5t397 -144t143 -386v-414q0 -242 -143 -386t-397 -144t-397.5 144.5t-143.5 385.5zM170 510q0 -202 120 -323t333 -121t332.5 121t119.5 323v414q0 202 -119.5 323t-332.5 121t-333 -121t-120 -323v-414zM340 324v784h348 q120 0 187 -63t67 -173q0 -87 -43 -146t-121 -81l189 -321h-203l-182 311h-68v-311h-174zM514 805h180q34 0 54 16.5t20 46.5q0 33 -20 50.5t-54 17.5h-180v-131z" />
<glyph unicode="&#xaf;" d="M303 1270v102h639v-102h-639z" />
<glyph unicode="&#xb0;" d="M303 1124q0 132 94 226t226 94t225.5 -94t93.5 -226t-93.5 -225.5t-225.5 -93.5t-226 93.5t-94 225.5zM391 1124q0 -97 67.5 -165t164.5 -68t164 68t67 165t-67.5 165.5t-163.5 68.5q-97 0 -164.5 -68.5t-67.5 -165.5z" />
<glyph unicode="&#xb1;" d="M217 317v93h811v-93h-811zM217 717v92h361v248h92v-248h358v-92h-358v-248h-92v248h-361z" />
<glyph unicode="&#xb2;" d="M342 821v154l338 315q33 32 44 54t11 47q0 53 -29 86.5t-81 33.5q-51 0 -80 -33.5t-29 -86.5q0 -35 29 -72l-127 -117q-76 76 -76 180q0 117 83 200t200 83q118 0 201 -83t83 -200q0 -41 -7 -70.5t-27 -58.5t-36.5 -46.5t-54.5 -53.5l-188 -178h313v-154h-567z" />
<glyph unicode="&#xb3;" d="M330 1092h174q0 -54 27 -91.5t81 -37.5t81.5 37.5t27.5 91.5q0 47 -31 84.5t-78 37.5v156q26 0 42 19.5t16 44.5q0 77 -58 77q-57 0 -57 -77h-174q0 96 67.5 163.5t163.5 67.5t164 -67.5t68 -163.5q0 -77 -45 -134q96 -86 96 -208q0 -123 -69 -203t-195 -80 q-140 0 -220.5 80.5t-80.5 202.5z" />
<glyph unicode="&#xb4;" d="M336 1294l547 150l26 -98l-547 -150z" />
<glyph unicode="&#xb6;" d="M133 1024q0 168 120 289t288 121h514v-1612h-88v1526h-318v-1526h-88v792h-20q-169 0 -288.5 120.5t-119.5 289.5z" />
<glyph unicode="&#xb7;" d="M485 457v274h275v-274h-275z" />
<glyph unicode="&#xb8;" d="M440 -274h172v172h103v-275h-275v103z" />
<glyph unicode="&#xb9;" d="M334 1430l223 223h174v-678h215v-154h-606v154h217v440l-106 -104z" />
<glyph unicode="&#xba;" d="M279 424v92h688v-92h-688zM279 948v162q0 75 20.5 135.5t54 99t79.5 64.5t93 36.5t97 10.5q65 0 123 -18t109 -56.5t81.5 -108.5t30.5 -163v-162q0 -93 -30.5 -163t-81.5 -108.5t-109 -56.5t-123 -18q-50 0 -97 10.5t-93 36.5t-79.5 64.5t-54 99t-20.5 135.5zM453 944 q0 -85 46.5 -130.5t123.5 -45.5q79 0 124.5 45t45.5 131v168q0 87 -45.5 132.5t-124.5 45.5q-78 0 -124 -45.5t-46 -132.5v-168z" />
<glyph unicode="&#xbb;" d="M178 158l367 366l-367 367l66 63l430 -430l-430 -430zM639 158l367 366l-367 367l66 63l430 -430l-430 -430z" />
<glyph unicode="&#xbc;" d="M147 307l889 891l66 -65l-889 -891zM166 899v82h139v336l-74 -76l-59 59l133 134h86v-453h137v-82h-362zM709 129h235v-129h86v129h55v82h-55v108h-86v-108h-133l203 278l-68 50l-237 -328v-82z" />
<glyph unicode="&#xbd;" d="M147 307l889 891l66 -65l-889 -891zM166 899v82h139v336l-74 -76l-59 59l133 134h86v-453h137v-82h-362zM731 0h332v82h-215l143 147q41 42 56.5 73.5t15.5 74.5q0 69 -48.5 117.5t-117.5 48.5t-117.5 -48.5t-48.5 -117.5q0 -73 51 -121l60 59q-25 25 -25 62 q0 34 22.5 58t57.5 24q36 0 58 -23.5t22 -58.5q0 -43 -49 -92l-197 -203v-82z" />
<glyph unicode="&#xbe;" d="M147 307l889 891l66 -65l-889 -891zM180 1057h86q0 -34 22.5 -58t57.5 -24t57.5 24t22.5 58t-21 58.5t-53 27.5h-6v78h6q26 1 43 21.5t17 47.5q0 28 -18.5 48t-47.5 20t-47 -20t-18 -48h-86q0 63 44 107.5t107 44.5t107.5 -44.5t44.5 -107.5q0 -61 -45 -106 q59 -49 59 -127q0 -69 -48.5 -117.5t-117.5 -48.5t-117.5 48.5t-48.5 117.5zM709 129h235v-129h86v129h55v82h-55v108h-86v-108h-133l203 278l-68 50l-237 -328v-82z" />
<glyph unicode="&#xbf;" d="M201 43q0 154 94 273t240 155v115h215v-310h-109q-96 0 -160.5 -68.5t-64.5 -164.5t64.5 -164.5t160.5 -68.5t160.5 68.5t64.5 164.5h215q0 -183 -128.5 -311.5t-311.5 -128.5t-311.5 128.5t-128.5 311.5zM504 782v275h274v-275h-274z" />
<glyph unicode="&#xc0;" d="M8 0l502 1434h225l502 -1434h-225l-121 346h-537l-121 -346h-225zM336 1661l26 98l547 -149l-26 -99zM424 549h397l-198 569z" />
<glyph unicode="&#xc1;" d="M8 0l502 1434h225l502 -1434h-225l-121 346h-537l-121 -346h-225zM336 1610l547 149l26 -98l-547 -150zM424 549h397l-198 569z" />
<glyph unicode="&#xc2;" d="M8 0l502 1434h225l502 -1434h-225l-121 346h-537l-121 -346h-225zM291 1602l332 157l331 -157l-43 -91l-288 138l-289 -138zM424 549h397l-198 569z" />
<glyph unicode="&#xc3;" d="M8 0l502 1434h225l502 -1434h-225l-121 346h-537l-121 -346h-225zM272 1608l273 145l162 -117l219 117l47 -88l-273 -145l-161 116l-220 -116zM424 549h397l-198 569z" />
<glyph unicode="&#xc4;" d="M8 0l502 1434h225l502 -1434h-225l-121 346h-537l-121 -346h-225zM303 1559v155h156v-155h-156zM424 549h397l-198 569zM786 1559v155h156v-155h-156z" />
<glyph unicode="&#xc5;" d="M8 0l481 1374q-47 33 -73.5 83.5t-26.5 109.5q0 97 68.5 166t165.5 69t166 -69t69 -166q0 -59 -27.5 -109.5t-74.5 -83.5l481 -1374h-225l-121 346h-537l-121 -346h-225zM424 549h397l-198 569zM489 1567q0 -55 39 -94t95 -39t95.5 39t39.5 94t-40 95t-95 40t-94.5 -39.5 t-39.5 -95.5z" />
<glyph unicode="&#xc6;" d="M8 0l502 1434h627v-217h-328v-386h184v-217h-184v-397h328v-217h-547v346h-236l-121 -346h-225zM424 549h166v471z" />
<glyph unicode="&#xc7;" d="M117 485v463q0 231 141.5 368.5t372.5 137.5q221 0 360.5 -125.5t151.5 -339.5h-219q-13 121 -98 184.5t-195 63.5q-55 0 -106.5 -17.5t-94.5 -51t-68.5 -91t-25.5 -129.5v-463q0 -72 25.5 -129t68.5 -91t94 -51t107 -17q110 0 195 63t98 184h219q-13 -213 -152.5 -338.5 t-359.5 -125.5q-232 0 -373 137.5t-141 367.5zM406 -274h172v172h102v-275h-274v103z" />
<glyph unicode="&#xc8;" d="M221 0v1434h846v-217h-627v-386h484v-217h-484v-397h627v-217h-846zM356 1661l27 98l547 -149l-27 -99z" />
<glyph unicode="&#xc9;" d="M221 0v1434h846v-217h-627v-386h484v-217h-484v-397h627v-217h-846zM356 1610l547 149l27 -98l-547 -150z" />
<glyph unicode="&#xca;" d="M221 0v1434h846v-217h-627v-386h484v-217h-484v-397h627v-217h-846zM311 1602l332 157l332 -157l-43 -91l-289 138l-289 -138z" />
<glyph unicode="&#xcb;" d="M221 0v1434h846v-217h-627v-386h484v-217h-484v-397h627v-217h-846zM324 1559v155h155v-155h-155zM807 1559v155h156v-155h-156z" />
<glyph unicode="&#xcc;" d="M201 0v217h313v1000h-313v217h846v-217h-314v-1000h314v-217h-846zM336 1661l26 98l547 -149l-26 -99z" />
<glyph unicode="&#xcd;" d="M201 0v217h313v1000h-313v217h846v-217h-314v-1000h314v-217h-846zM336 1610l547 149l26 -98l-547 -150z" />
<glyph unicode="&#xce;" d="M201 0v217h313v1000h-313v217h846v-217h-314v-1000h314v-217h-846zM291 1602l332 157l331 -157l-43 -91l-288 138l-289 -138z" />
<glyph unicode="&#xcf;" d="M201 0v217h313v1000h-313v217h846v-217h-314v-1000h314v-217h-846zM303 1559v155h156v-155h-156zM786 1559v155h156v-155h-156z" />
<glyph unicode="&#xd0;" d="M-2 672v92h143v670h514q231 0 372.5 -137.5t141.5 -368.5v-422q0 -231 -141.5 -368.5t-372.5 -137.5h-514v672h-143zM360 217h295q75 0 140 30t110 98.5t45 164.5v414q0 96 -45 164.5t-110 98.5t-140 30h-295v-453h295v-92h-295v-455z" />
<glyph unicode="&#xd1;" d="M109 0v1434h219l590 -1028v1028h219v-1434h-219l-590 1028v-1028h-219zM272 1608l273 145l162 -117l219 117l47 -88l-273 -145l-161 116l-220 -116z" />
<glyph unicode="&#xd2;" d="M109 485v463q0 231 141.5 368.5t372.5 137.5t372.5 -137.5t141.5 -368.5v-463q0 -230 -141 -367.5t-373 -137.5t-373 137.5t-141 367.5zM328 485q0 -72 25.5 -129t68.5 -91t94 -51t107 -17t107 17t94 51t68.5 91t25.5 129v463q0 72 -25.5 129.5t-68.5 91t-94.5 51 t-106.5 17.5t-106.5 -17.5t-94.5 -51t-68.5 -91t-25.5 -129.5v-463zM336 1661l26 98l547 -149l-26 -99z" />
<glyph unicode="&#xd3;" d="M109 485v463q0 231 141.5 368.5t372.5 137.5t372.5 -137.5t141.5 -368.5v-463q0 -230 -141 -367.5t-373 -137.5t-373 137.5t-141 367.5zM328 485q0 -72 25.5 -129t68.5 -91t94 -51t107 -17t107 17t94 51t68.5 91t25.5 129v463q0 72 -25.5 129.5t-68.5 91t-94.5 51 t-106.5 17.5t-106.5 -17.5t-94.5 -51t-68.5 -91t-25.5 -129.5v-463zM336 1610l547 149l26 -98l-547 -150z" />
<glyph unicode="&#xd4;" d="M109 485v463q0 231 141.5 368.5t372.5 137.5t372.5 -137.5t141.5 -368.5v-463q0 -230 -141 -367.5t-373 -137.5t-373 137.5t-141 367.5zM291 1602l332 157l331 -157l-43 -91l-288 138l-289 -138zM328 485q0 -72 25.5 -129t68.5 -91t94 -51t107 -17t107 17t94 51t68.5 91 t25.5 129v463q0 72 -25.5 129.5t-68.5 91t-94.5 51t-106.5 17.5t-106.5 -17.5t-94.5 -51t-68.5 -91t-25.5 -129.5v-463z" />
<glyph unicode="&#xd5;" d="M109 485v463q0 231 141.5 368.5t372.5 137.5t372.5 -137.5t141.5 -368.5v-463q0 -230 -141 -367.5t-373 -137.5t-373 137.5t-141 367.5zM272 1608l273 145l162 -117l219 117l47 -88l-273 -145l-161 116l-220 -116zM328 485q0 -72 25.5 -129t68.5 -91t94 -51t107 -17 t107 17t94 51t68.5 91t25.5 129v463q0 72 -25.5 129.5t-68.5 91t-94.5 51t-106.5 17.5t-106.5 -17.5t-94.5 -51t-68.5 -91t-25.5 -129.5v-463z" />
<glyph unicode="&#xd6;" d="M109 485v463q0 231 141.5 368.5t372.5 137.5t372.5 -137.5t141.5 -368.5v-463q0 -230 -141 -367.5t-373 -137.5t-373 137.5t-141 367.5zM303 1559v155h156v-155h-156zM328 485q0 -72 25.5 -129t68.5 -91t94 -51t107 -17t107 17t94 51t68.5 91t25.5 129v463 q0 72 -25.5 129.5t-68.5 91t-94.5 51t-106.5 17.5t-106.5 -17.5t-94.5 -51t-68.5 -91t-25.5 -129.5v-463zM786 1559v155h156v-155h-156z" />
<glyph unicode="&#xd7;" d="M272 289l285 284l-285 285l66 66l285 -285l286 285l66 -66l-287 -285l287 -284l-66 -66l-286 285l-285 -285z" />
<glyph unicode="&#xd8;" d="M109 485v463q0 231 141.5 368.5t372.5 137.5q197 0 327 -100l88 147l76 -47l-96 -162q119 -135 119 -344v-463q0 -230 -141 -367.5t-373 -137.5q-200 0 -330 100l-88 -148l-76 48l96 161q-116 135 -116 344zM328 485q0 -75 24 -131l482 805q-84 78 -211 78 q-55 0 -106.5 -17.5t-94.5 -51t-68.5 -91t-25.5 -129.5v-463zM410 276q82 -79 213 -79q56 0 107 17t94 51t68.5 91t25.5 129v463q0 69 -27 131z" />
<glyph unicode="&#xd9;" d="M109 485v949h219v-949q0 -72 25.5 -129t68.5 -91t94 -51t107 -17t107 17t94 51t68.5 91t25.5 129v949h219v-949q0 -230 -141 -367.5t-373 -137.5t-373 137.5t-141 367.5zM336 1661l26 98l547 -149l-26 -99z" />
<glyph unicode="&#xda;" d="M109 485v949h219v-949q0 -72 25.5 -129t68.5 -91t94 -51t107 -17t107 17t94 51t68.5 91t25.5 129v949h219v-949q0 -230 -141 -367.5t-373 -137.5t-373 137.5t-141 367.5zM336 1610l547 149l26 -98l-547 -150z" />
<glyph unicode="&#xdb;" d="M109 485v949h219v-949q0 -72 25.5 -129t68.5 -91t94 -51t107 -17t107 17t94 51t68.5 91t25.5 129v949h219v-949q0 -230 -141 -367.5t-373 -137.5t-373 137.5t-141 367.5zM291 1602l332 157l331 -157l-43 -91l-288 138l-289 -138z" />
<glyph unicode="&#xdc;" d="M109 485v949h219v-949q0 -72 25.5 -129t68.5 -91t94 -51t107 -17t107 17t94 51t68.5 91t25.5 129v949h219v-949q0 -230 -141 -367.5t-373 -137.5t-373 137.5t-141 367.5zM303 1559v155h156v-155h-156zM786 1559v155h156v-155h-156z" />
<glyph unicode="&#xdd;" d="M8 1434l504 -887v-547h219v547l506 887h-242l-372 -660l-373 660h-242zM336 1610l547 149l26 -98l-547 -150z" />
<glyph unicode="&#xde;" d="M158 0v1434h219v-248h325q121 0 215 -37t152 -102.5t87.5 -149t29.5 -180.5t-29.5 -180.5t-87.5 -149t-152 -102.5t-215 -37h-325v-248h-219zM377 465h325q131 0 196 71.5t65 182.5t-65 182.5t-196 71.5h-325v-508z" />
<glyph unicode="&#xdf;" d="M225 0v1182q0 126 61 189t191 63h94v-207h-32q-61 0 -80 -20.5t-19 -80.5v-69h561v-199l-221 -278q133 -61 215 -185.5t82 -275.5q0 -209 -148.5 -357.5t-357.5 -148.5v207q122 0 206.5 87.5t84.5 211.5t-84.5 210.5t-206.5 86.5v209l174 225h-305v-850h-215z" />
<glyph unicode="&#xe0;" d="M164 293q0 48 11.5 93.5t36.5 89.5t71.5 79t109.5 55q86 27 184.5 39t260.5 23q-3 27 -9 51q-20 77 -76 116.5t-139 39.5q-81 0 -137.5 -38t-77.5 -112h-219q13 100 58.5 173t110 111t130 55t135.5 17q60 0 117 -11.5t117 -42.5t105 -79t73.5 -126.5t28.5 -178.5v-647 h-215v100q-100 -120 -316 -120q-100 0 -179.5 32t-130 104.5t-50.5 176.5zM342 1346l27 98l546 -150l-26 -98zM379 311q0 -125 180 -125q41 0 77 5.5t74.5 21t66 41t45.5 68.5t18 100v59q-169 -11 -263 -25t-147 -46q-51 -30 -51 -99z" />
<glyph unicode="&#xe1;" d="M164 293q0 48 11.5 93.5t36.5 89.5t71.5 79t109.5 55q86 27 184.5 39t260.5 23q-3 27 -9 51q-20 77 -76 116.5t-139 39.5q-81 0 -137.5 -38t-77.5 -112h-219q13 100 58.5 173t110 111t130 55t135.5 17q60 0 117 -11.5t117 -42.5t105 -79t73.5 -126.5t28.5 -178.5v-647 h-215v100q-100 -120 -316 -120q-100 0 -179.5 32t-130 104.5t-50.5 176.5zM342 1294l547 150l26 -98l-546 -150zM379 311q0 -125 180 -125q41 0 77 5.5t74.5 21t66 41t45.5 68.5t18 100v59q-169 -11 -263 -25t-147 -46q-51 -30 -51 -99z" />
<glyph unicode="&#xe2;" d="M164 293q0 48 11.5 93.5t36.5 89.5t71.5 79t109.5 55q86 27 184.5 39t260.5 23q-3 27 -9 51q-20 77 -76 116.5t-139 39.5q-81 0 -137.5 -38t-77.5 -112h-219q13 100 58.5 173t110 111t130 55t135.5 17q60 0 117 -11.5t117 -42.5t105 -79t73.5 -126.5t28.5 -178.5v-647 h-215v100q-100 -120 -316 -120q-100 0 -179.5 32t-130 104.5t-50.5 176.5zM297 1286l332 158l332 -158l-43 -90l-289 137l-289 -137zM379 311q0 -125 180 -125q41 0 77 5.5t74.5 21t66 41t45.5 68.5t18 100v59q-169 -11 -263 -25t-147 -46q-51 -30 -51 -99z" />
<glyph unicode="&#xe3;" d="M164 293q0 48 11.5 93.5t36.5 89.5t71.5 79t109.5 55q86 27 184.5 39t260.5 23q-3 27 -9 51q-20 77 -76 116.5t-139 39.5q-81 0 -137.5 -38t-77.5 -112h-219q13 100 58.5 173t110 111t130 55t135.5 17q60 0 117 -11.5t117 -42.5t105 -79t73.5 -126.5t28.5 -178.5v-647 h-215v100q-100 -120 -316 -120q-100 0 -179.5 32t-130 104.5t-50.5 176.5zM279 1292l272 146l162 -117l219 117l47 -88l-272 -146l-162 117l-219 -117zM379 311q0 -125 180 -125q41 0 77 5.5t74.5 21t66 41t45.5 68.5t18 100v59q-169 -11 -263 -25t-147 -46q-51 -30 -51 -99 z" />
<glyph unicode="&#xe4;" d="M164 293q0 48 11.5 93.5t36.5 89.5t71.5 79t109.5 55q86 27 184.5 39t260.5 23q-3 27 -9 51q-20 77 -76 116.5t-139 39.5q-81 0 -137.5 -38t-77.5 -112h-219q13 100 58.5 173t110 111t130 55t135.5 17q60 0 117 -11.5t117 -42.5t105 -79t73.5 -126.5t28.5 -178.5v-647 h-215v100q-100 -120 -316 -120q-100 0 -179.5 32t-130 104.5t-50.5 176.5zM309 1243v156h156v-156h-156zM379 311q0 -125 180 -125q41 0 77 5.5t74.5 21t66 41t45.5 68.5t18 100v59q-169 -11 -263 -25t-147 -46q-51 -30 -51 -99zM793 1243v156h155v-156h-155z" />
<glyph unicode="&#xe5;" d="M164 293q0 48 11.5 93.5t36.5 89.5t71.5 79t109.5 55q86 27 184.5 39t260.5 23q-7 102 -67 154.5t-157 52.5q-81 0 -137.5 -38t-77.5 -112h-219q18 135 89 215.5t175 114.5q-63 66 -63 160q0 97 68 166t165 69t166.5 -69t69.5 -166q0 -94 -66 -160q56 -19 102.5 -50.5 t85.5 -80t61 -120.5t22 -161v-647h-215v100q-100 -120 -316 -120q-100 0 -179.5 32t-130 104.5t-50.5 176.5zM379 311q0 -125 180 -125q41 0 77 5.5t74.5 21t66 41t45.5 68.5t18 100v59q-169 -11 -263 -25t-147 -46q-51 -30 -51 -99zM481 1219q0 -56 39 -95t94 -39 q56 0 96 39.5t40 94.5t-40 95t-96 40q-55 0 -94 -39.5t-39 -95.5z" />
<glyph unicode="&#xe6;" d="M104 276v84q0 135 87 216t225 81h98v127q0 44 -27.5 69.5t-70.5 25.5t-70 -25t-27 -70v-55h-215v62q0 135 86.5 214.5t225.5 79.5q126 0 207 -75q78 75 204 75q139 0 225.5 -79.5t86.5 -214.5v-342h-410v-168q0 -45 27 -70t69 -25q43 0 71 25t28 68v57h215v-62 q0 -135 -86.5 -214.5t-225.5 -79.5q-126 0 -204 75q-81 -75 -207 -75q-138 0 -225 80.5t-87 215.5zM319 281q0 -45 27 -70t70 -25t70.5 25t27.5 68v170h-98q-43 0 -70 -25t-27 -70v-73zM729 657h195v127q0 44 -28 69.5t-71 25.5q-42 0 -69 -25t-27 -70v-127z" />
<glyph unicode="&#xe7;" d="M190 418v229q0 100 28.5 178.5t73.5 126.5t105 79t117 42.5t117 11.5q56 0 110 -10t111 -37t101.5 -68.5t76 -109.5t39.5 -155h-219q-15 86 -72.5 130t-146.5 44q-103 0 -164 -60t-61 -176v-221q0 -116 61 -176t164 -60q89 0 147.5 44t73.5 130h217q-8 -87 -39.5 -155 t-76 -109.5t-101.5 -68.5t-111 -37t-110 -10q-60 0 -117 11.5t-117 42.5t-105 79t-73.5 126.5t-28.5 178.5zM406 -274h172v172h102v-275h-274v103z" />
<glyph unicode="&#xe8;" d="M184 418v229q0 100 28.5 178.5t73.5 126.5t105 79t117 42.5t117 11.5t117 -11.5t117 -42.5t104.5 -79t73 -126.5t28.5 -178.5v-190h-666v-35q0 -116 61 -176t165 -60q81 0 137.5 38t77.5 112h219q-13 -100 -58.5 -173t-110 -111t-130 -55t-135.5 -17q-60 0 -117 11.5 t-117 42.5t-105 79t-73.5 126.5t-28.5 178.5zM338 1346l27 98l546 -150l-26 -98zM399 647h451v2q-1 112 -62 171t-163 59q-104 0 -165 -58.5t-61 -171.5v-2z" />
<glyph unicode="&#xe9;" d="M184 418v229q0 100 28.5 178.5t73.5 126.5t105 79t117 42.5t117 11.5t117 -11.5t117 -42.5t104.5 -79t73 -126.5t28.5 -178.5v-190h-666v-35q0 -116 61 -176t165 -60q81 0 137.5 38t77.5 112h219q-13 -100 -58.5 -173t-110 -111t-130 -55t-135.5 -17q-60 0 -117 11.5 t-117 42.5t-105 79t-73.5 126.5t-28.5 178.5zM338 1294l547 150l26 -98l-546 -150zM399 647h451v2q-1 112 -62 171t-163 59q-104 0 -165 -58.5t-61 -171.5v-2z" />
<glyph unicode="&#xea;" d="M184 418v229q0 100 28.5 178.5t73.5 126.5t105 79t117 42.5t117 11.5t117 -11.5t117 -42.5t104.5 -79t73 -126.5t28.5 -178.5v-190h-666v-35q0 -116 61 -176t165 -60q81 0 137.5 38t77.5 112h219q-13 -100 -58.5 -173t-110 -111t-130 -55t-135.5 -17q-60 0 -117 11.5 t-117 42.5t-105 79t-73.5 126.5t-28.5 178.5zM293 1286l332 158l331 -158l-43 -90l-288 137l-289 -137zM399 647h451v2q-1 112 -62 171t-163 59q-104 0 -165 -58.5t-61 -171.5v-2z" />
<glyph unicode="&#xeb;" d="M184 418v229q0 100 28.5 178.5t73.5 126.5t105 79t117 42.5t117 11.5t117 -11.5t117 -42.5t104.5 -79t73 -126.5t28.5 -178.5v-190h-666v-35q0 -116 61 -176t165 -60q81 0 137.5 38t77.5 112h219q-13 -100 -58.5 -173t-110 -111t-130 -55t-135.5 -17q-60 0 -117 11.5 t-117 42.5t-105 79t-73.5 126.5t-28.5 178.5zM305 1243v156h156v-156h-156zM399 647h451v2q-1 112 -62 171t-163 59q-104 0 -165 -58.5t-61 -171.5v-2zM788 1243v156h156v-156h-156z" />
<glyph unicode="&#xec;" d="M150 0v207h372v643h-270v207h485v-850h373v-207h-960zM342 1346l27 98l546 -150l-26 -98z" />
<glyph unicode="&#xed;" d="M150 0v207h372v643h-270v207h485v-850h373v-207h-960zM342 1294l547 150l26 -98l-546 -150z" />
<glyph unicode="&#xee;" d="M150 0v207h372v643h-270v207h485v-850h373v-207h-960zM297 1286l332 158l332 -158l-43 -90l-289 137l-289 -137z" />
<glyph unicode="&#xef;" d="M150 0v207h372v643h-270v207h485v-850h373v-207h-960zM309 1243v156h156v-156h-156zM793 1243v156h155v-156h-155z" />
<glyph unicode="&#xf0;" d="M182 418v229q0 97 27 174t69.5 124.5t100 79.5t113 45t114.5 15l-82 113h-241v88h176l-107 148h258l107 -148h184v-88h-119l189 -260q92 -110 92 -291v-229q0 -100 -28.5 -178.5t-73 -126.5t-104.5 -79t-117 -42.5t-117 -11.5t-117 11.5t-117 42.5t-105 79t-73.5 126.5 t-28.5 178.5zM397 422q0 -116 61 -176t165 -60q103 0 164 60t61 176v221q0 116 -61 176t-164 60q-104 0 -165 -60t-61 -176v-221z" />
<glyph unicode="&#xf1;" d="M186 0v1057h215v-92q24 48 95 84t151 36q57 0 113.5 -14t112.5 -47t98.5 -81.5t69 -125t26.5 -170.5v-647h-215v643q0 116 -60.5 175t-164.5 59t-165 -59t-61 -175v-643h-215zM276 1292l273 146l162 -117l219 117l47 -88l-272 -146l-162 117l-219 -117z" />
<glyph unicode="&#xf2;" d="M182 418v229q0 100 28.5 178.5t73.5 126.5t105 79t117 42.5t117 11.5t117 -11.5t117 -42.5t104.5 -79t73 -126.5t28.5 -178.5v-229q0 -100 -28.5 -178.5t-73 -126.5t-104.5 -79t-117 -42.5t-117 -11.5t-117 11.5t-117 42.5t-105 79t-73.5 126.5t-28.5 178.5zM336 1346 l26 98l547 -150l-26 -98zM397 422q0 -116 61 -176t165 -60q103 0 164 60t61 176v221q0 116 -61 176t-164 60q-104 0 -165 -60t-61 -176v-221z" />
<glyph unicode="&#xf3;" d="M182 418v229q0 100 28.5 178.5t73.5 126.5t105 79t117 42.5t117 11.5t117 -11.5t117 -42.5t104.5 -79t73 -126.5t28.5 -178.5v-229q0 -100 -28.5 -178.5t-73 -126.5t-104.5 -79t-117 -42.5t-117 -11.5t-117 11.5t-117 42.5t-105 79t-73.5 126.5t-28.5 178.5zM336 1294 l547 150l26 -98l-547 -150zM397 422q0 -116 61 -176t165 -60q103 0 164 60t61 176v221q0 116 -61 176t-164 60q-104 0 -165 -60t-61 -176v-221z" />
<glyph unicode="&#xf4;" d="M182 418v229q0 100 28.5 178.5t73.5 126.5t105 79t117 42.5t117 11.5t117 -11.5t117 -42.5t104.5 -79t73 -126.5t28.5 -178.5v-229q0 -100 -28.5 -178.5t-73 -126.5t-104.5 -79t-117 -42.5t-117 -11.5t-117 11.5t-117 42.5t-105 79t-73.5 126.5t-28.5 178.5zM291 1286 l332 158l331 -158l-43 -90l-288 137l-289 -137zM397 422q0 -116 61 -176t165 -60q103 0 164 60t61 176v221q0 116 -61 176t-164 60q-104 0 -165 -60t-61 -176v-221z" />
<glyph unicode="&#xf5;" d="M182 418v229q0 100 28.5 178.5t73.5 126.5t105 79t117 42.5t117 11.5t117 -11.5t117 -42.5t104.5 -79t73 -126.5t28.5 -178.5v-229q0 -100 -28.5 -178.5t-73 -126.5t-104.5 -79t-117 -42.5t-117 -11.5t-117 11.5t-117 42.5t-105 79t-73.5 126.5t-28.5 178.5zM272 1292 l273 146l162 -117l219 117l47 -88l-273 -146l-161 117l-220 -117zM397 422q0 -116 61 -176t165 -60q103 0 164 60t61 176v221q0 116 -61 176t-164 60q-104 0 -165 -60t-61 -176v-221z" />
<glyph unicode="&#xf6;" d="M182 418v229q0 100 28.5 178.5t73.5 126.5t105 79t117 42.5t117 11.5t117 -11.5t117 -42.5t104.5 -79t73 -126.5t28.5 -178.5v-229q0 -100 -28.5 -178.5t-73 -126.5t-104.5 -79t-117 -42.5t-117 -11.5t-117 11.5t-117 42.5t-105 79t-73.5 126.5t-28.5 178.5zM303 1243 v156h156v-156h-156zM397 422q0 -116 61 -176t165 -60q103 0 164 60t61 176v221q0 116 -61 176t-164 60q-104 0 -165 -60t-61 -176v-221zM786 1243v156h156v-156h-156z" />
<glyph unicode="&#xf7;" d="M217 528v93h811v-93h-811zM537 168q0 35 25.5 60.5t60.5 25.5t60.5 -25.5t25.5 -60.5t-25.5 -60.5t-60.5 -25.5t-60.5 25.5t-25.5 60.5zM537 981q0 35 25.5 60.5t60.5 25.5t60.5 -25.5t25.5 -60.5t-25.5 -60.5t-60.5 -25.5t-60.5 25.5t-25.5 60.5z" />
<glyph unicode="&#xf8;" d="M182 418v229q0 100 28.5 178.5t73.5 126.5t105 79t117 42.5t117 11.5q134 0 241 -59l64 107l76 -48l-66 -110q125 -115 125 -328v-229q0 -100 -28.5 -178.5t-73 -126.5t-104.5 -79t-117 -42.5t-117 -11.5q-137 0 -244 59l-64 -107l-75 48l65 110q-123 116 -123 328z M397 422q0 -75 29 -131l330 553q-56 35 -133 35q-104 0 -165 -60t-61 -176v-221zM487 221q56 -35 136 -35q103 0 164 60t61 176v221q0 71 -31 131z" />
<glyph unicode="&#xf9;" d="M184 418v639h215v-635q0 -116 59.5 -175t159.5 -59t160 59t60 175v635h215v-1057h-215v100q-24 -48 -95 -84t-151 -36q-56 0 -112 15.5t-110 49.5t-95 84t-66 124.5t-25 164.5zM332 1346l26 98l547 -150l-26 -98z" />
<glyph unicode="&#xfa;" d="M184 418v639h215v-635q0 -116 59.5 -175t159.5 -59t160 59t60 175v635h215v-1057h-215v100q-24 -48 -95 -84t-151 -36q-56 0 -112 15.5t-110 49.5t-95 84t-66 124.5t-25 164.5zM332 1294l547 150l26 -98l-547 -150z" />
<glyph unicode="&#xfb;" d="M184 418v639h215v-635q0 -116 59.5 -175t159.5 -59t160 59t60 175v635h215v-1057h-215v100q-24 -48 -95 -84t-151 -36q-56 0 -112 15.5t-110 49.5t-95 84t-66 124.5t-25 164.5zM287 1286l331 158l332 -158l-43 -90l-289 137l-288 -137z" />
<glyph unicode="&#xfc;" d="M184 418v639h215v-635q0 -116 59.5 -175t159.5 -59t160 59t60 175v635h215v-1057h-215v100q-24 -48 -95 -84t-151 -36q-56 0 -112 15.5t-110 49.5t-95 84t-66 124.5t-25 164.5zM299 1243v156h156v-156h-156zM782 1243v156h156v-156h-156z" />
<glyph unicode="&#xfd;" d="M135 1057h223l265 -752l264 752h223l-469 -1301q-47 -133 -233 -133h-144v207h76q40 0 61 3t37 19t22 29.5t23 55.5l29 77zM336 1294l547 150l26 -98l-547 -150z" />
<glyph unicode="&#xfe;" d="M190 -377v1811h216v-469q24 48 94.5 84t150.5 36q57 0 113.5 -14t112.5 -47t98.5 -81.5t69 -125t26.5 -170.5v-229q0 -94 -26.5 -170.5t-69 -125t-98.5 -81.5t-112.5 -47t-113.5 -14q-80 0 -150.5 36t-94.5 84v-477h-216zM406 422q0 -116 60.5 -175t164.5 -59t164.5 59 t60.5 175v221q0 116 -60.5 175t-164.5 59t-164.5 -59t-60.5 -175v-221z" />
<glyph unicode="&#xff;" d="M135 1057h223l265 -752l264 752h223l-469 -1301q-47 -133 -233 -133h-144v207h76q40 0 61 3t37 19t22 29.5t23 55.5l29 77zM303 1243v156h156v-156h-156zM786 1243v156h156v-156h-156z" />
<glyph unicode="&#x152;" d="M109 506v422q0 231 141.5 368.5t372.5 137.5h546v-217h-327v-386h184v-217h-184v-397h327v-217h-546q-231 0 -372.5 137.5t-141.5 368.5zM328 506q0 -72 25.5 -129.5t68.5 -91t94.5 -51t106.5 -17.5v1000q-55 0 -106.5 -17.5t-94.5 -51t-68.5 -91t-25.5 -129.5v-422z" />
<glyph unicode="&#x153;" d="M106 276v515q0 135 86.5 214.5t225.5 79.5q129 0 207 -75q78 75 204 75q139 0 225.5 -79.5t86.5 -214.5v-342h-410v-168q0 -45 27 -70t69 -25q43 0 71 25t28 68v57h215v-62q0 -135 -86.5 -214.5t-225.5 -79.5q-126 0 -204 75q-78 -75 -207 -75q-138 0 -225 80.5 t-87 215.5zM322 281q0 -45 27 -70t69 -25q43 0 70.5 25t27.5 68v505q0 44 -27.5 69.5t-70.5 25.5q-42 0 -69 -25t-27 -70v-503zM731 657h195v127q0 44 -28 69.5t-71 25.5q-42 0 -69 -25t-27 -70v-127z" />
<glyph unicode="&#x178;" d="M8 1434l504 -887v-547h219v547l506 887h-242l-372 -660l-373 660h-242zM303 1559v155h156v-155h-156zM786 1559v155h156v-155h-156z" />
<glyph unicode="&#x2c6;" d="M291 1286l332 158l331 -158l-43 -90l-288 137l-289 -137z" />
<glyph unicode="&#x2dc;" d="M272 1292l273 146l162 -117l219 117l47 -88l-273 -146l-161 117l-220 -117z" />
<glyph unicode="&#x2000;" horiz-adv-x="901" />
<glyph unicode="&#x2001;" horiz-adv-x="1802" />
<glyph unicode="&#x2002;" horiz-adv-x="901" />
<glyph unicode="&#x2003;" horiz-adv-x="1802" />
<glyph unicode="&#x2004;" horiz-adv-x="600" />
<glyph unicode="&#x2005;" horiz-adv-x="450" />
<glyph unicode="&#x2006;" horiz-adv-x="300" />
<glyph unicode="&#x2007;" horiz-adv-x="300" />
<glyph unicode="&#x2008;" horiz-adv-x="225" />
<glyph unicode="&#x2009;" horiz-adv-x="360" />
<glyph unicode="&#x200a;" horiz-adv-x="100" />
<glyph unicode="&#x2010;" d="M326 528v93h594v-93h-594z" />
<glyph unicode="&#x2011;" d="M326 528v93h594v-93h-594z" />
<glyph unicode="&#x2012;" d="M326 528v93h594v-93h-594z" />
<glyph unicode="&#x2013;" d="M217 528v93h811v-93h-811z" />
<glyph unicode="&#x2014;" d="M152 528v93h940v-93h-940z" />
<glyph unicode="&#x2018;" d="M485 995l179 449l94 -39l-178 -449z" />
<glyph unicode="&#x2019;" d="M485 995l179 449l94 -39l-178 -449z" />
<glyph unicode="&#x201a;" d="M485 -205l179 449l94 -39l-178 -449z" />
<glyph unicode="&#x201c;" d="M258 995l178 449l94 -39l-178 -449zM715 995l178 449l94 -39l-178 -449z" />
<glyph unicode="&#x201d;" d="M258 995l178 449l94 -39l-178 -449zM715 995l178 449l94 -39l-178 -449z" />
<glyph unicode="&#x201e;" d="M258 -205l178 449l94 -39l-178 -449zM715 -205l178 449l94 -39l-178 -449z" />
<glyph unicode="&#x2022;" d="M279 713q0 143 100.5 243.5t243.5 100.5t243.5 -100.5t100.5 -243.5t-100.5 -243.5t-243.5 -100.5t-243.5 100.5t-100.5 243.5z" />
<glyph unicode="&#x2026;" d="M98 0v215h215v-215h-215zM514 0v215h215v-215h-215zM930 0v215h215v-215h-215z" />
<glyph unicode="&#x202f;" horiz-adv-x="360" />
<glyph unicode="&#x2039;" d="M313 528l430 430l66 -63l-367 -367l367 -366l-66 -64z" />
<glyph unicode="&#x203a;" d="M436 162l367 366l-367 367l66 63l430 -430l-430 -430z" />
<glyph unicode="&#x205f;" horiz-adv-x="450" />
<glyph unicode="&#x20ac;" d="M20 563v88h144v133h-144v88h144v76q0 231 141.5 368.5t372.5 137.5q220 0 359.5 -126t152.5 -339h-215q-13 124 -99 191t-198 67q-57 0 -109 -18.5t-95 -54t-69 -94.5t-26 -132v-76h493v-88h-493v-133h493v-88h-493v-78q0 -73 26 -132t69 -94.5t95 -54t109 -18.5 q112 0 198 67t99 191h215q-13 -213 -152.5 -338.5t-359.5 -125.5q-232 0 -373 137.5t-141 367.5v78h-144z" />
<glyph unicode="&#x2122;" d="M33 1274v160h557v-160h-195v-543h-170v543h-192zM655 731v703h150l129 -334l129 334h149v-703h-159v389l-74 -200h-90l-74 200v-389h-160z" />
<glyph unicode="&#x25fc;" horiz-adv-x="1054" d="M0 0v1055h1055v-1055h-1055z" />
</font>
</defs>
</svg>
